<?xml version="1.0" encoding="UTF-8" standalone="no"?>
<!DOCTYPE svg PUBLIC "-//W3C//DTD SVG 1.1//EN" "http://www.w3.org/Graphics/SVG/1.1/DTD/svg11.dtd">
<svg width="100%" height="100%" viewBox="0 0 1280 640" version="1.1" xmlns="http://www.w3.org/2000/svg" xmlns:xlink="http://www.w3.org/1999/xlink" xml:space="preserve" xmlns:serif="http://www.serif.com/" style="fill-rule:evenodd;clip-rule:evenodd;stroke-linejoin:round;stroke-miterlimit:2;">
    <g transform="matrix(0.1,0,0,-0.1,0,640)">
        <path d="M2160,5169C1871,4932 1589,4745 1301,4601C1073,4486 867,4405 502,4284L298,4217L502,4116C787,3972 995,3842 1198,3680C1585,3371 1830,3020 1832,2774C1833,2662 1827,2654 1677,2568C1466,2446 1384,2403 682,2050C316,1866 19,1711 21,1705C23,1700 70,1681 125,1663C180,1646 324,1600 445,1562C566,1523 895,1419 1175,1330C1456,1241 1724,1156 1772,1140L1859,1112L2007,1173C2088,1207 2360,1337 2610,1461C2860,1586 3092,1700 3125,1715C3644,1948 4029,1887 4580,1485C4673,1417 4689,1409 4720,1414C4739,1416 4883,1446 5040,1480C5197,1513 5384,1553 5455,1568C5531,1584 5573,1596 5555,1598C5328,1618 5073,1732 4881,1899C4609,2135 4610,2404 4883,2626L4941,2673L5288,2666C5900,2654 6903,2635 8260,2610C8543,2605 8942,2598 9145,2595C9349,2592 9562,2588 9620,2585C9678,2582 9955,2578 10235,2574C10521,2571 10762,2564 10785,2558C10886,2533 10992,2452 11066,2344C11087,2314 11105,2290 11106,2290C11108,2290 11143,2303 11184,2319C11255,2346 11260,2347 11260,2329C11260,2319 11254,2310 11246,2310C11218,2310 11200,2280 11200,2231C11200,2205 11205,2179 11212,2172C11219,2165 11252,2160 11292,2160C11370,2160 11383,2172 11378,2243C11375,2279 11371,2287 11343,2300C11318,2311 11310,2322 11310,2341C11310,2366 11317,2371 11423,2408C11623,2479 11650,2483 11650,2445C11650,2428 11645,2420 11632,2420C11602,2420 11590,2398 11590,2343C11590,2280 11603,2270 11684,2270C11729,2270 11742,2274 11754,2292C11788,2340 11764,2420 11717,2420C11704,2420 11700,2429 11700,2456L11700,2493L11808,2487C11867,2484 11939,2474 11968,2465C12017,2449 12020,2447 12020,2414C12020,2388 12016,2380 12002,2380C11972,2380 11960,2358 11960,2303C11960,2241 11973,2230 12047,2230C12108,2230 12129,2245 12137,2292C12144,2336 12120,2380 12090,2380C12077,2380 12070,2387 12070,2400C12070,2411 12075,2420 12080,2420C12091,2420 12246,2343 12357,2281L12428,2242L12584,2421C12670,2519 12737,2600 12733,2600C12728,2600 12696,2590 12660,2579C12565,2548 12439,2547 12383,2578C12287,2629 12287,2727 12385,2854L12422,2903L12401,2929C12339,3005 12325,3085 12363,3141C12416,3220 12514,3255 12659,3247C12712,3245 12763,3239 12774,3235C12786,3230 12791,3231 12789,3238C12787,3244 12722,3325 12646,3419C12507,3590 12507,3590 12486,3572C12445,3534 12313,3452 12225,3408C12110,3350 12090,3344 12090,3364C12090,3373 12098,3380 12109,3380C12155,3380 12179,3480 12142,3513C12121,3532 12031,3536 11999,3520C11984,3511 11980,3498 11980,3454C11980,3401 11982,3398 12010,3387C12056,3370 12051,3334 12002,3320C11924,3300 11856,3290 11784,3290C11717,3290 11710,3292 11710,3310C11710,3323 11717,3330 11729,3330C11775,3330 11799,3430 11762,3463C11740,3483 11631,3487 11612,3468C11605,3461 11600,3432 11600,3402C11600,3351 11602,3348 11630,3337C11658,3327 11674,3290 11651,3290C11622,3290 11495,3322 11432,3346C11362,3372 11360,3373 11360,3407C11360,3426 11364,3439 11369,3436C11385,3425 11418,3465 11423,3501C11431,3556 11412,3576 11348,3582C11279,3589 11254,3579 11245,3541C11235,3493 11248,3451 11276,3444C11289,3441 11300,3432 11300,3424C11300,3405 11298,3406 11240,3440C11212,3457 11188,3470 11186,3470C11184,3470 11146,3425 11101,3370C11008,3256 10911,3171 10831,3133C10760,3100 10631,3091 10385,3102C10286,3106 9879,3123 9480,3140C9081,3156 8654,3174 8530,3180C8406,3185 8197,3194 8065,3200C7774,3213 6011,3287 5779,3296L5613,3303L5572,3369C5415,3626 5511,3808 5865,3928C6022,3982 6357,4039 6525,4041C6558,4041 6593,4044 6602,4048C6616,4054 5967,4296 5570,4433L5515,4452L5380,4371C5000,4141 4706,4037 4435,4037C4160,4037 3943,4120 3552,4373C3498,4408 3301,4542 3115,4671C2742,4928 2265,5242 2249,5239C2247,5239 2207,5207 2160,5169Z" style="fill:white;fill-rule:nonzero;"/>
    </g>
</svg>
